<svg width="156" height="36" viewBox="0 0 156 36" fill="none" xmlns="http://www.w3.org/2000/svg">
  <path fill-rule="evenodd" clip-rule="evenodd" d="M95.3618 8.06475C95.3618 7.92881 95.3395 7.79287 95.3395 7.65693H90.2622V8.15537C90.2622 11.3499 90.2622 14.5671 90.2622 17.7616C90.2622 18.1694 90.24 18.5772 90.1731 18.9624C89.8837 20.571 89.0152 21.7265 87.4341 22.1343C85.8085 22.5647 84.2942 22.2929 83.1362 20.9108C82.4013 20.0272 82.2009 18.9624 82.2009 17.8522C82.2009 14.6124 82.2009 11.3726 82.2009 8.11006V7.63428H77.1459V8.11006C77.1459 10.353 77.1459 12.6187 77.1459 14.8616C77.1459 16.4022 77.1014 17.9429 77.1904 19.4608C77.3909 22.9726 79.5509 25.8499 83.1807 26.303C85.9866 26.6429 88.3248 25.7819 90.0395 23.403C90.0841 23.3351 90.1509 23.2671 90.2622 23.1312C90.2622 24.0374 90.2622 24.853 90.2622 25.6687C90.2622 26.4163 90.2845 27.5491 90.1731 28.2741C89.9059 30.3358 88.4584 31.6046 86.3875 31.6952C84.4278 31.7858 82.869 30.5624 82.4236 28.614C82.3791 28.3874 82.2677 27.889 82.2677 27.5265H77.6581C77.6581 27.5038 77.5913 27.7077 77.7026 28.478C78.0812 31.2421 79.3505 33.1905 81.7555 34.5952C83.6707 35.7054 85.7194 35.9999 87.8795 35.7054C89.995 35.4335 91.8656 34.5952 93.313 32.9413C94.8051 31.2194 95.384 28.7952 95.384 26.5522C95.3618 20.4124 95.3618 14.2499 95.3618 8.06475Z" fill="white"/>
  <path fill-rule="evenodd" clip-rule="evenodd" d="M107.677 7.38499C110.26 7.04514 112.71 7.4303 114.959 8.81233C117.609 10.4436 119.034 12.9131 119.457 16.017C119.791 18.5319 119.479 20.9787 118.165 23.1764C116.228 26.4615 113.311 27.8662 109.592 27.549C107.677 27.3678 105.984 26.6655 104.626 25.2155C104.476 25.0625 104.35 24.9096 104.194 24.7184C104.142 24.6547 104.086 24.5867 104.025 24.5131V35.4787H98.992C98.992 35.4108 98.9864 35.3428 98.9809 35.2748C98.9753 35.2069 98.9697 35.1389 98.9697 35.0709V17.5576C98.992 14.7256 99.8159 12.2108 101.82 10.1944C103.446 8.56311 105.428 7.67952 107.677 7.38499ZM104.426 19.8006C105.806 24.1506 110.884 24.3772 113.11 21.885C114.224 20.6162 114.625 19.1209 114.669 17.399C114.669 16.4701 114.536 15.4733 114.113 14.5444C113.289 12.6865 111.886 11.599 109.904 11.4178C107.855 11.2365 106.14 11.9389 105.027 13.7514C103.869 15.6545 103.758 17.7162 104.426 19.8006Z" fill="white"/>
  <path fill-rule="evenodd" clip-rule="evenodd" d="M149.275 9.33345C147.85 10.285 146.87 11.7803 146.514 13.4569C146.358 14.1592 146.291 14.8616 146.269 15.5639C146.224 19.3022 146.246 23.0405 146.246 26.7788C146.246 26.9147 146.269 27.028 146.269 27.1639H151.346V26.6655C151.346 24.1053 151.346 21.5452 151.346 18.9624C151.346 17.8975 151.324 16.8553 151.368 15.7905C151.435 13.6381 152.504 12.392 154.597 12.0295C155.02 11.9616 155.443 11.9389 155.889 11.8936V7.61157C153.528 7.65688 151.279 7.97407 149.275 9.33345Z" fill="white"/>
  <path fill-rule="evenodd" clip-rule="evenodd" d="M127.14 18.9851C127.696 21.5453 129.945 23.471 132.64 23.471C134.8 23.471 136.671 22.2476 137.628 20.4124H142.572C142.26 21.4773 141.815 22.4288 141.169 23.2898C139.165 25.9632 136.47 27.3226 133.197 27.5038C130.591 27.6398 128.186 27.0507 126.071 25.4421C123.755 23.6749 122.53 21.296 122.285 18.396C122.062 15.7226 122.641 13.2531 124.289 11.1007C125.982 8.90307 128.275 7.70229 130.97 7.33979C133.442 6.99994 135.824 7.31713 138.029 8.58588C140.879 10.2398 142.483 12.7773 142.884 16.0851C142.969 16.8702 142.931 18.1381 142.908 18.8987C142.908 18.9283 142.907 18.9571 142.906 18.9851H142.438H138.14H127.14ZM132.684 11.3953H132.64C130.257 11.3953 128.208 12.9132 127.385 15.0656H127.474H127.54H137.628H137.695H137.784C136.982 12.9132 135.134 11.3953 132.729 11.3953H132.684Z" fill="white"/>
  <path fill-rule="evenodd" clip-rule="evenodd" d="M73.494 8.01948V7.65698H73.1377C66.8579 7.67964 62.0479 7.67964 56.5698 7.65698V12.075H67.281L56.4139 22.8593L56.3916 26.9148V27.2773H56.9261C63.2059 27.2546 67.9936 27.2773 73.4718 27.2773V22.8593H62.6714C62.6491 22.8593 62.6269 22.8593 62.6046 22.8593L73.4718 12.075L73.494 8.01948Z" fill="white"/>
<rect x="34" width="1" height="35" fill="white" fill-opacity="0.15"/>
<path fill-rule="evenodd" clip-rule="evenodd" d="M10.3669 18.3121C10.7689 17.8518 10.9565 17.2687 10.9565 16.5935C10.9565 16.5014 10.9565 16.44 10.9565 16.3479C10.8493 15.151 10.0184 14.261 8.99998 14.261C7.90111 14.261 7.04346 15.2738 7.04346 16.5935C7.04346 17.9132 7.87431 18.9259 8.97318 18.9566C9.50921 18.9566 9.99164 18.7418 10.3669 18.3121Z" fill="#4EB79C"/>
<path fill-rule="evenodd" clip-rule="evenodd" d="M17.6505 8C11.301 8 5.53398 8 0 8V12.4126H11.8544C11.9126 12.4126 11.9709 12.4126 12.0291 12.4126C12.1748 12.4126 12.3495 12.4126 12.4951 12.4126H13.5146V16.6087C15 15.2281 16.5146 13.8203 18 12.4397V8.35193V8.02707H17.6505V8Z" fill="#4EB79C"/>
<path fill-rule="evenodd" clip-rule="evenodd" d="M0.349515 26.0001C6.69903 26.0001 12.466 26.0001 18 26.0001V21.5874H6.14563C6.08738 21.5874 6.02913 21.5874 5.97087 21.5874C5.82524 21.5874 5.65049 21.5874 5.50485 21.5874H4.48544V17.3914C3 18.772 1.48544 20.1797 0 21.5603V25.6481V25.973H0.349515V26.0001Z" fill="#4EB79C"/>
</svg>
